<?xml version="1.0" encoding="UTF-8"?>
<!DOCTYPE svg PUBLIC "-//W3C//DTD SVG 1.1//EN" "http://www.w3.org/Graphics/SVG/1.1/DTD/svg11.dtd">
<!-- Creator: CorelDRAW -->
<svg xmlns="http://www.w3.org/2000/svg" xml:space="preserve" width="0.478055in" height="0.486039in" version="1.1" style="shape-rendering:geometricPrecision; text-rendering:geometricPrecision; image-rendering:optimizeQuality; fill-rule:evenodd; clip-rule:evenodd"
viewBox="0 0 80.63 81.98"
 xmlns:xlink="http://www.w3.org/1999/xlink"
 xmlns:xodm="http://www.corel.com/coreldraw/odm/2003">
 <defs>
  <style type="text/css">
   <![CDATA[
    .fil1 {fill:#70AD32}
    .fil0 {fill:#FE8100}
   ]]>
  </style>
 </defs>
 <g id="Layer_x0020_1">
  <metadata id="CorelCorpID_0Corel-Layer"/>
  <path class="fil0" d="M53.73 0l15.84 0c3.05,0 5.82,1.24 7.82,3.24 2,2 3.24,4.77 3.24,7.82l0 59.67c0,2.04 -0.78,4.23 -2.1,6.09l0 0.03c-0.95,1.34 -2.21,2.57 -3.66,3.46l-0.02 0c-1.67,1.02 -3.61,1.67 -5.7,1.67 -2.02,0 -4.08,-0.59 -6.04,-1.98l-39.88 -28.27 0 -15.48 44.75 31.72 0 -55.3 -14.24 0 0 -12.67z"/>
  <path class="fil1" d="M26.23 81.98l-15.17 0c-3.05,0 -5.82,-1.24 -7.82,-3.24 -2,-2 -3.24,-4.77 -3.24,-7.82l0 -59.67c0,-2.04 0.79,-4.23 2.1,-6.09l0 -0.03c0.95,-1.34 2.21,-2.57 3.66,-3.46l0.02 0c1.67,-1.02 3.61,-1.67 5.7,-1.67 2.02,0 4.08,0.59 6.04,1.98l39.88 28.27 0 15.48 -44.75 -31.72 0 55.3 13.57 0 0 12.66z"/>
 </g>
</svg>
